<svg xmlns="http://www.w3.org/2000/svg" width="1829" height="662" viewBox="0 0 1829 662">
  <path id="Path_58" data-name="Path 58" d="M1795.4,55.652V33.694h-20.259V52.779h-15.907V33.694H2.563V52.779H-13.344V33.694H-33.6V55.652h17.61V72.165H-33.6V657.22h17.61v16.516H-33.6v21.958h20.259V676.607H2.563v19.086H1759.231V676.607h15.907v19.086H1795.4V673.736h-17.61V657.22h17.61V72.165h-17.61V55.652Zm-17.61-19.085h14.961V52.779h-14.961ZM-15.993,692.821H-30.954V676.607h14.961ZM1759.231,55.652h15.907V72.165h-15.907ZM9.187,40.873h1743.42V52.779H9.187ZM-13.344,55.652H2.563V72.165H-13.344Zm-17.61-2.872V36.566h14.961V52.779Zm14.961,597.263H-26.98V79.346h10.987ZM2.563,673.736H-13.344V657.22H2.563Zm1750.044,14.777H9.187V676.607h1743.42Zm22.531-14.777h-15.907V657.22h15.907Zm0-23.694h-22.531v23.694H9.187V650.042H-13.344V79.346H9.187V55.652h1743.42V79.346h22.531Zm17.61,26.565v16.214h-14.961V676.607Zm-3.975-597.262v570.7h-10.986V79.346Z" transform="translate(33.603 -33.694)" fill="#fff"/>
</svg>
