<svg id="Group_19" data-name="Group 19" xmlns="http://www.w3.org/2000/svg" width="56.348" height="56.347" viewBox="0 0 56.348 56.347">
  <g id="Group_17" data-name="Group 17" transform="translate(0 0)">
    <path id="Path_27" data-name="Path 27" d="M1106.581,1653.9a28.174,28.174,0,1,1,28.174-28.174A28.206,28.206,0,0,1,1106.581,1653.9Zm0-54.8a26.627,26.627,0,1,0,26.627,26.627A26.657,26.657,0,0,0,1106.581,1599.1Z" transform="translate(-1078.407 -1597.554)" fill="#fff"/>
  </g>
  <g id="Group_18" data-name="Group 18" transform="translate(19.17 10.912)">
    <path id="Path_28" data-name="Path 28" d="M1129.958,1658.394c0-.085.009-.169.009-.254q0-7.648,0-15.3v-.195h-5.1c-.226,0-.227,0-.227-.218,0-1.909,0-3.817,0-5.726,0-.175.052-.218.221-.218,1.626.006,3.252,0,4.879,0h.228c0-.066,0-.125,0-.184,0-1.587-.01-3.174.013-4.76a8.663,8.663,0,0,1,.822-3.67,6.654,6.654,0,0,1,3.556-3.366,8.377,8.377,0,0,1,3.369-.639c1.332.02,2.663.08,3.994.127.248.009.494.051.741.064.138.007.184.058.183.2-.005.79,0,1.581,0,2.371,0,.932,0,1.864,0,2.8,0,.162-.046.212-.209.211-1.01-.007-2.022-.019-3.032,0a7.208,7.208,0,0,0-1.373.159,1.919,1.919,0,0,0-1.549,1.621,5.688,5.688,0,0,0-.112,1.056c-.013,1.293-.005,2.586-.005,3.879,0,.038.005.077.009.136h5.811c.244,0,.248,0,.218.232-.132,1.017-.269,2.033-.4,3.05q-.164,1.274-.317,2.55c-.039.325-.031.326-.357.326h-4.964v15.373c0,.124,0,.248,0,.372Z" transform="translate(-1124.64 -1623.869)" fill="#fff"/>
  </g>
</svg>
