<svg id="Group_16" data-name="Group 16" xmlns="http://www.w3.org/2000/svg" width="56.347" height="56.347" viewBox="0 0 56.347 56.347">
  <g id="Group_11" data-name="Group 11" transform="translate(0 0)">
    <path id="Path_23" data-name="Path 23" d="M1289.962,1653.9a28.174,28.174,0,1,1,28.174-28.174A28.206,28.206,0,0,1,1289.962,1653.9Zm0-54.8a26.627,26.627,0,1,0,26.627,26.627A26.657,26.657,0,0,0,1289.962,1599.1Z" transform="translate(-1261.789 -1597.554)" fill="#fff"/>
  </g>
  <g id="Group_15" data-name="Group 15" transform="translate(11.852 11.405)">
    <g id="Group_12" data-name="Group 12">
      <path id="Path_24" data-name="Path 24" d="M1313.519,1658.6h-13.65a9.524,9.524,0,0,1-9.5-9.5v-14.545a9.524,9.524,0,0,1,9.5-9.5h13.65a9.524,9.524,0,0,1,9.5,9.5V1649.1A9.524,9.524,0,0,1,1313.519,1658.6Zm0-2.509a7.016,7.016,0,0,0,6.987-6.987v-14.545a7.015,7.015,0,0,0-6.987-6.987h-13.65a7.015,7.015,0,0,0-6.987,6.987V1649.1a7.016,7.016,0,0,0,6.987,6.987Z" transform="translate(-1290.373 -1625.059)" fill="#fff"/>
    </g>
    <g id="Group_13" data-name="Group 13" transform="translate(7.383 7.651)">
      <path id="Path_25" data-name="Path 25" d="M1326.156,1652.5a8.989,8.989,0,1,1-8.989-8.989A8.989,8.989,0,0,1,1326.156,1652.5Zm-9.032-5.879a5.886,5.886,0,1,0,5.886,5.886A5.886,5.886,0,0,0,1317.125,1646.62Z" transform="translate(-1308.179 -1643.51)" fill="#fff"/>
    </g>
    <g id="Group_14" data-name="Group 14" transform="translate(23.376 5.383)">
      <path id="Path_26" data-name="Path 26" d="M1351.007,1640.168a2.128,2.128,0,1,1-2.128-2.128A2.128,2.128,0,0,1,1351.007,1640.168Z" transform="translate(-1346.75 -1638.04)" fill="#fff"/>
    </g>
  </g>
</svg>
