<svg id="Group_85" data-name="Group 85" xmlns="http://www.w3.org/2000/svg" width="35.697" height="35.697" viewBox="0 0 35.697 35.697">
  <path id="Path_55" data-name="Path 55" d="M668.387,11.655c4.766,0,5.33.018,7.212.1a9.879,9.879,0,0,1,3.314.615,5.91,5.91,0,0,1,3.387,3.387,9.876,9.876,0,0,1,.615,3.314c.086,1.882.1,2.447.1,7.212s-.018,5.33-.1,7.212a9.876,9.876,0,0,1-.615,3.314,5.91,5.91,0,0,1-3.387,3.387,9.874,9.874,0,0,1-3.314.615c-1.882.086-2.446.1-7.212.1s-5.33-.018-7.212-.1a9.872,9.872,0,0,1-3.314-.615,5.91,5.91,0,0,1-3.387-3.387,9.881,9.881,0,0,1-.615-3.314c-.086-1.882-.1-2.446-.1-7.212s.018-5.33.1-7.212a9.88,9.88,0,0,1,.615-3.314,5.911,5.911,0,0,1,3.387-3.387,9.878,9.878,0,0,1,3.314-.615c1.882-.086,2.447-.1,7.212-.1m0-3.216c-4.847,0-5.455.02-7.359.107a13.1,13.1,0,0,0-4.333.83,9.127,9.127,0,0,0-5.22,5.22,13.1,13.1,0,0,0-.83,4.333c-.087,1.9-.107,2.511-.107,7.359s.02,5.455.107,7.359a13.1,13.1,0,0,0,.83,4.333,9.127,9.127,0,0,0,5.22,5.22,13.1,13.1,0,0,0,4.333.83c1.9.087,2.512.107,7.359.107s5.455-.021,7.359-.107a13.1,13.1,0,0,0,4.332-.83,9.126,9.126,0,0,0,5.22-5.22,13.1,13.1,0,0,0,.83-4.333c.087-1.9.107-2.511.107-7.359s-.02-5.455-.107-7.359a13.1,13.1,0,0,0-.83-4.333,9.126,9.126,0,0,0-5.22-5.22,13.1,13.1,0,0,0-4.332-.83c-1.9-.087-2.512-.107-7.359-.107" transform="translate(-650.539 -8.439)" fill="#041e3a"/>
  <path id="Path_56" data-name="Path 56" d="M770.691,119.426a9.165,9.165,0,1,0,9.165,9.165,9.165,9.165,0,0,0-9.165-9.165m0,15.115a5.949,5.949,0,1,1,5.95-5.95,5.949,5.949,0,0,1-5.95,5.95" transform="translate(-752.843 -110.743)" fill="#041e3a"/>
  <path id="Path_57" data-name="Path 57" d="M977.366,89.562a2.142,2.142,0,1,1-2.142-2.142,2.142,2.142,0,0,1,2.142,2.142" transform="translate(-947.848 -81.241)" fill="#041e3a"/>
</svg>
