<svg id="Group_2" data-name="Group 2" xmlns="http://www.w3.org/2000/svg" width="341.006" height="149.344" viewBox="0 0 341.006 149.344">
  <path id="Path_1" data-name="Path 1" d="M1126.588,243.709c-3.762-1.193-15.417-2.911-28.6-.222-9.908,1.359-30.476-.144-36.568-5.5,10.238-.821,12.052-3.817,15.5-6.853-3.844-3.828-15.853-8.908-22.665-9.5-7.229-.63-17.025,2.437-22.479,4.706-8.678,3.607-36.173,8.074-41.019,2.135l-.277.008c.05-.688.05-.688.257-.9,13.207.9,24.195-4.747,37.022-10.624,7.87-3.6,14.311-6.168,22.983-6.39a56.859,56.859,0,0,1,25.478,5.187c9.623,4.5,17.589,8,20.283,10.366.935.821.587.951,2.064.01,19.385-11.748,31.907-16.6,46.383-17.029,5.556-.166,11.6-.192,17.217.2,13.887.961,29.83,1.05,44.093-1.7-4.256,8.433-20.043,10.218-25.357,10.179-1.091-.007-22.716-.058-26.968.1-8.071.3-46.983,8.928-45.62,13.641.938,3.23,7.576,4.159,13.879,4.339a4.339,4.339,0,0,1,4.054,2.148c1.014,1.506.888,3.756.34,5.7" transform="translate(-921.599 -207.599)" fill="#fff" fill-rule="evenodd"/>
  <path id="Path_2" data-name="Path 2" d="M1126.588,243.709c-3.762-1.193-15.417-2.911-28.6-.222-9.908,1.359-30.476-.144-36.568-5.5,10.238-.821,12.052-3.817,15.5-6.853-3.844-3.828-15.853-8.908-22.665-9.5-7.229-.63-17.025,2.437-22.479,4.706-8.678,3.607-36.173,8.074-41.019,2.135l-.277.008c.05-.688.05-.688.257-.9,13.207.9,24.195-4.747,37.022-10.624,7.87-3.6,14.311-6.168,22.983-6.39a56.859,56.859,0,0,1,25.478,5.187c9.623,4.5,17.589,8,20.283,10.366.935.821.587.951,2.064.01,19.385-11.748,31.907-16.6,46.383-17.029,5.556-.166,11.6-.192,17.217.2,13.887.961,29.83,1.05,44.093-1.7-4.256,8.433-20.043,10.218-25.357,10.179-1.091-.007-22.716-.058-26.968.1-8.071.3-46.983,8.928-45.62,13.641.938,3.23,7.576,4.159,13.879,4.339a4.339,4.339,0,0,1,4.054,2.148c1.014,1.506.888,3.756.34,5.7" transform="translate(-921.599 -207.599)" fill="#fff"/>
  <path id="Path_3" data-name="Path 3" d="M981.821,341.556v3.218h-6.088v17.533q0,3.416,1.976,3.416,1.683,0,3.465-2.428l1.036.734q-2.753,5.138-8.938,5.138a10.392,10.392,0,0,1-6.25-1.68,5.4,5.4,0,0,1-2.3-4.616v-18.1H961v-2.145q9.034-3.416,12.338-10.672h2.4v9.6Z" transform="translate(-907.838 -265.644)" fill="#fff"/>
  <path id="Path_4" data-name="Path 4" d="M1018.03,326.5v15.9h.13a11.249,11.249,0,0,1,8.808-4.122q8.9,0,8.9,9.814v12.466a10.921,10.921,0,0,0,.227,2.849,2.287,2.287,0,0,0,2.429,1.382v1.271h-15.867v-1.271q2.2-.17,2.2-3.187V345.219q0-2.9-2.331-2.9-2.105,0-4.5,3.694v14.55a11.442,11.442,0,0,0,.195,2.735,2.121,2.121,0,0,0,2.2,1.495v1.271h-16.191v-1.271q2.784.142,2.785-3.247V332.009a11.762,11.762,0,0,0-.194-2.88q-.486-1.356-2.591-1.356V326.5Z" transform="translate(-928.019 -263.099)" fill="#fff"/>
  <path id="Path_5" data-name="Path 5" d="M1099.611,368.373l1.457.706q-4.339,8.273-14.215,8.272-6.509,0-10.314-3.751t-3.8-10.182a14.2,14.2,0,0,1,14.8-14.836,13.846,13.846,0,0,1,9.164,3.072q4.4,3.748,4.371,10.9h-17.713a11.613,11.613,0,0,0,2.478,7.552,7.913,7.913,0,0,0,6.331,2.781q4.242,0,7.447-4.517m-16.255-8.187h7.351q0-5.461-.7-7.346a2.632,2.632,0,0,0-2.672-1.886,3.026,3.026,0,0,0-2.93,2.083,21.864,21.864,0,0,0-1.053,7.149" transform="translate(-959.992 -273.404)" fill="#fff"/>
  <path id="Path_6" data-name="Path 6" d="M1190.633,351.531v1.74h-29.027v-1.74q4.366.155,5.688-1.16t1.321-5.335V307.343q0-4.137-1.3-5.374t-5.706-1.121v-1.74h29.027v1.74q-4.183-.154-5.487,1.083t-1.3,5.412v37.693q0,4.1,1.3,5.373t5.487,1.121" transform="translate(-1001.473 -250.312)" fill="#fff"/>
  <path id="Path_7" data-name="Path 7" d="M1261.546,366.622l-30.374-32.355h-.162v25.608q0,2.709,1.344,3.74t5.035,1.172v1.27h-15.252v-1.27q5.764-.113,5.764-4.63V330.965l-1.263-1.384a4.965,4.965,0,0,0-1.862-1.44,10.632,10.632,0,0,0-2.963-.367V326.5h18.3l23.282,24.817h.13V331.783q0-4.262-6.153-4.009V326.5h14.766v1.27a7.627,7.627,0,0,0-4.242,1.031,3.681,3.681,0,0,0-1.263,3.148v34.67Z" transform="translate(-1029.575 -263.099)" fill="#fff"/>
  <path id="Path_8" data-name="Path 8" d="M1360.165,366.622l-30.374-32.355h-.162v25.608q0,2.709,1.344,3.74t5.035,1.172v1.27h-15.252v-1.27q5.764-.113,5.764-4.63V330.965l-1.263-1.384a4.963,4.963,0,0,0-1.862-1.44,10.633,10.633,0,0,0-2.963-.367V326.5h18.3l23.282,24.817h.13V331.783q0-4.262-6.153-4.009V326.5h14.766v1.27a7.627,7.627,0,0,0-4.242,1.031,3.681,3.681,0,0,0-1.263,3.148v34.67Z" transform="translate(-1075.606 -263.099)" fill="#fff"/>
  <g id="Group_1" data-name="Group 1" transform="translate(0 102.881)">
    <path id="Path_9" data-name="Path 9" d="M1376.384,438.738a4.4,4.4,0,0,0-3.216,1.671v5.567a6.12,6.12,0,0,0,.463,1.608,2.763,2.763,0,0,0,2.443,1.3c2.227,0,3.4-1.763,3.4-5.166C1379.477,440.5,1378.394,438.738,1376.384,438.738Z" transform="translate(-1100.221 -418.366)" fill="#fff"/>
    <path id="Path_10" data-name="Path 10" d="M1004.759,438.1a2.166,2.166,0,0,0-1.763.9,5.1,5.1,0,0,0-.619,2.505h4.546a1.761,1.761,0,0,0,.031-.4C1006.955,439.245,1006.12,438.1,1004.759,438.1Z" transform="translate(-927.152 -418.069)" fill="#fff"/>
    <path id="Path_11" data-name="Path 11" d="M1314.7,450.562a1.7,1.7,0,0,0,1.67,1.763,4.307,4.307,0,0,0,2.691-1.329v-4.021l-.186.062C1315.817,448.273,1314.7,449.2,1314.7,450.562Z" transform="translate(-1072.933 -422.211)" fill="#fff"/>
    <path id="Path_12" data-name="Path 12" d="M1137.388,438.1c-1.33,0-2.134,1.144-2.134,3.03,0,2.227.742,3.371,2.2,3.371,1.392,0,2.1-1.144,2.1-3.34C1139.553,439.184,1138.779,438.1,1137.388,438.1Z" transform="translate(-989.173 -418.069)" fill="#fff"/>
    <path id="Path_13" data-name="Path 13" d="M1189.814,438.159a2.6,2.6,0,0,0-2.35,1.237,13.446,13.446,0,0,0,0,8.257,2.666,2.666,0,0,0,2.289,1.237c2.227,0,3.031-1.423,3.031-5.412C1192.783,439.643,1191.948,438.159,1189.814,438.159Z" transform="translate(-1013.239 -418.096)" fill="#fff"/>
    <path id="Path_14" data-name="Path 14" d="M1408.416,438.159a2.593,2.593,0,0,0-2.35,1.237,13.446,13.446,0,0,0,0,8.257,2.665,2.665,0,0,0,2.289,1.237c2.226,0,3.03-1.423,3.03-5.412C1411.385,439.643,1410.55,438.159,1408.416,438.159Z" transform="translate(-1115.273 -418.096)" fill="#fff"/>
    <path id="Path_15" data-name="Path 15" d="M861.305,400.534V447h341.006V400.534Zm118.122,10.692a2.366,2.366,0,0,1-.031,4.732,2.366,2.366,0,0,1,.031-4.732ZM883.614,432.5a3.191,3.191,0,0,1-3.217-1.825,8.707,8.707,0,0,1-5.041,1.825c-2.072,0-3.464-1.113-3.464-2.783a3.065,3.065,0,0,1,.9-2.134,17.171,17.171,0,0,1,4.856-2.66c.278-.093.742-.278,1.33-.525l1.237-.464v-.959c0-.99-.155-1.577-.557-1.856a3.011,3.011,0,0,0-1.794-.526,3.061,3.061,0,0,0-1.763.495,2.115,2.115,0,0,0-.433,1.113,1.639,1.639,0,0,1-1.763,1.577,1.4,1.4,0,0,1-1.546-1.361c0-1.825,2.784-3.186,6.464-3.186,2.227,0,3.711.434,4.577,1.361.65.68.8,1.175.8,2.722v5.536c0,1.33.216,1.824.866,1.824.495,0,.865-.4.989-1.082h1.021C886.985,431.422,885.717,432.5,883.614,432.5Zm9.619.186c-2.536,0-3.866-1.515-3.866-4.423v-7.175h-1.824v-1.361a1.571,1.571,0,0,0,.278.031,4.506,4.506,0,0,0,4.3-4.083h1.237v4.052H897.1v1.361h-3.742v6.8c0,1.608.031,1.948.309,2.412a1.088,1.088,0,0,0,1.052.619c.711,0,1.206-.371,1.7-1.268l1.144.433A4.469,4.469,0,0,1,893.232,432.69Zm36.927-19.762h-.278c-2.01-.062-2.536.619-2.566,3.154v11.506c-.031,2.443.619,3.309,2.505,3.247h.34v1.361H919.923v-1.361h.278c1.887.062,2.567-.8,2.536-3.247v-5.443H913.49v5.443c-.03,2.443.649,3.309,2.536,3.247h.278v1.361H906.068v-1.361h.34c1.887.062,2.537-.8,2.506-3.247V416.081c-.031-2.536-.557-3.216-2.567-3.154h-.278v-1.361H916.3v1.361h-.247c-2.01-.031-2.536.619-2.567,3.154v4.454h9.247v-4.454c-.031-2.536-.557-3.185-2.567-3.154h-.247v-1.361h10.237ZM945.1,425.174h-8.6a8.1,8.1,0,0,0-.031.836c0,3.309,1.3,5.134,3.65,5.134a4.126,4.126,0,0,0,3.526-2.042l1.175.588a6.505,6.505,0,0,1-5.753,3,6.614,6.614,0,0,1-6.9-6.773,6.534,6.534,0,0,1,6.8-6.681c3.588,0,6.124,2.351,6.124,5.722Zm12.8-1.793c-.65,0-.959-.216-1.577-1.052-.371-.463-.649-.649-1.052-.649-.588,0-1.113.4-1.577,1.176a6.585,6.585,0,0,0-.773,3.835v1.639c.062,2.072.433,2.536,1.948,2.568h.34v1.3h-8.351v-1.3h.186c1.516-.031,1.825-.464,1.887-2.568v-4.051c-.062-2.072-.4-2.536-1.917-2.567h-.186v-1.3c.99-.155,2.814-.557,5.443-1.176a10.81,10.81,0,0,1,.464,3.155,5.147,5.147,0,0,1,4.33-3.155,2.361,2.361,0,0,1,2.474,2.351A1.689,1.689,0,0,1,957.9,423.381Zm14.195,0c-.649,0-.958-.216-1.577-1.052-.371-.463-.649-.649-1.052-.649-.587,0-1.113.4-1.577,1.176a6.586,6.586,0,0,0-.773,3.835v1.639c.062,2.072.433,2.536,1.948,2.568h.341v1.3h-8.351v-1.3h.186c1.516-.031,1.825-.464,1.887-2.568v-4.051c-.062-2.072-.4-2.536-1.917-2.567h-.186v-1.3c.99-.155,2.814-.557,5.443-1.176a10.8,10.8,0,0,1,.463,3.155,5.147,5.147,0,0,1,4.33-3.155,2.361,2.361,0,0,1,2.474,2.351A1.689,1.689,0,0,1,972.1,423.381Zm11.443,8.814h-8.412v-1.3h.4c1.546-.031,1.887-.464,1.948-2.568v-4.268c0-1.948-.433-2.5-1.979-2.474h-.371v-1.33c1.206-.093,5.134-.774,6.124-1.021h.216v9.093c.062,2.072.4,2.536,1.887,2.568h.186Zm18.092,0H993.87v-1.3l.217-.031c1.238-.093,1.453-.432,1.516-2.536v-5.041a1.771,1.771,0,0,0-1.794-2.01c-1.082,0-2.072.68-3.154,2.164v4.887c.061,2.1.278,2.474,1.608,2.568h.124v1.3h-7.731v-1.3h.124c1.516-.031,1.825-.464,1.887-2.568v-4.144c-.093-1.918-.495-2.443-1.887-2.443h-.155v-1.3c.65-.124,1.052-.186,2.753-.464a23.2,23.2,0,0,0,2.752-.526h.247a6.283,6.283,0,0,1,.34,2.041,6.339,6.339,0,0,1,4.732-2.258,4.192,4.192,0,0,1,3.68,1.856,5.683,5.683,0,0,1,.526,3.061v4.175c.062,2.1.371,2.536,1.825,2.568h.155Zm15.711-10.36a1.072,1.072,0,0,1-.866-.495c-.309-.34-.464-.434-.711-.434-.309,0-.557.155-.9.526a4.094,4.094,0,0,1,.681,2.258c0,2.876-2.412,4.639-6.4,4.67-1.918,0-2.938.432-2.938,1.237,0,.681.526.8,3.093.866,3.247,0,4.02.062,5.258.464a3.775,3.775,0,0,1,2.691,3.8c0,3.278-2.784,5.165-7.608,5.165a10.412,10.412,0,0,1-4.949-.928,3.081,3.081,0,0,1-1.7-2.6,1.794,1.794,0,0,1,1.7-1.856,2.9,2.9,0,0,1,1.083.247,2.668,2.668,0,0,0-.464,1.423c0,1.515,1.67,2.443,4.454,2.443,3.186,0,5.134-1.052,5.134-2.814,0-.959-.68-1.608-1.917-1.794a19.736,19.736,0,0,0-3.495-.186c-3.9,0-5.753-.958-5.753-3,0-1.515.99-2.443,3.031-2.938a4.494,4.494,0,0,1-3.278-4.238c0-2.659,2.443-4.423,6.155-4.423a6.7,6.7,0,0,1,4.515,1.423,3.9,3.9,0,0,1,2.66-1.391,1.374,1.374,0,0,1,1.515,1.423A1.022,1.022,0,0,1,1017.344,421.834Zm7.856,10.855c-2.536,0-3.866-1.515-3.866-4.423v-7.175h-1.825v-1.361a1.578,1.578,0,0,0,.278.031,4.506,4.506,0,0,0,4.3-4.083h1.237v4.052h3.742v1.361h-3.742v6.8c0,1.608.031,1.948.309,2.412a1.087,1.087,0,0,0,1.052.619c.711,0,1.206-.371,1.7-1.268l1.144.433A4.469,4.469,0,0,1,1025.2,432.69Zm12.8,0c-4.361,0-7.422-2.753-7.422-6.68,0-3.959,3.03-6.774,7.3-6.774,4.237,0,7.268,2.815,7.268,6.742C1045.148,429.813,1042.086,432.69,1038,432.69Zm25.948-.495h-7.763v-1.3l.217-.031c1.238-.093,1.454-.432,1.515-2.536v-5.041a1.77,1.77,0,0,0-1.794-2.01c-1.082,0-2.072.68-3.154,2.164v4.887c.061,2.1.278,2.474,1.608,2.568h.123v1.3h-7.732v-1.3h.123c1.515-.031,1.825-.464,1.887-2.568v-4.144c-.092-1.918-.494-2.443-1.887-2.443h-.155v-1.3c.65-.124,1.052-.186,2.753-.464a23.29,23.29,0,0,0,2.753-.526h.247a6.273,6.273,0,0,1,.34,2.041,6.34,6.34,0,0,1,4.732-2.258,4.192,4.192,0,0,1,3.68,1.856,5.682,5.682,0,0,1,.526,3.061v4.175c.062,2.1.371,2.536,1.825,2.568h.155Zm33.062-19.268h-.279c-2.01-.062-2.536.619-2.566,3.154v11.506c-.031,2.443.619,3.309,2.505,3.247h.34v1.361h-10.237v-1.361h.278c1.887.062,2.567-.8,2.536-3.247v-5.443h-9.248v5.443c-.031,2.443.65,3.309,2.536,3.247h.278v1.361h-10.237v-1.361h.34c1.887.062,2.536-.8,2.505-3.247V416.081c-.031-2.536-.557-3.216-2.567-3.154h-.278v-1.361h10.237v1.361h-.247c-2.01-.031-2.536.619-2.567,3.154v4.454h9.248v-4.454c-.031-2.536-.557-3.185-2.567-3.154h-.247v-1.361h10.237Zm13.825,19.577a3.192,3.192,0,0,1-3.217-1.825,8.707,8.707,0,0,1-5.041,1.825c-2.072,0-3.463-1.113-3.463-2.783a3.063,3.063,0,0,1,.9-2.134,17.168,17.168,0,0,1,4.855-2.66c.279-.093.743-.278,1.33-.525l1.238-.464v-.959c0-.99-.155-1.577-.557-1.856a3.015,3.015,0,0,0-1.794-.526,3.058,3.058,0,0,0-1.762.495,2.109,2.109,0,0,0-.433,1.113,1.639,1.639,0,0,1-1.762,1.577,1.405,1.405,0,0,1-1.547-1.361c0-1.825,2.784-3.186,6.464-3.186,2.227,0,3.711.434,4.577,1.361.65.68.8,1.175.8,2.722v5.536c0,1.33.216,1.824.866,1.824.495,0,.866-.4.99-1.082h1.02C1114.21,431.422,1112.942,432.5,1110.839,432.5Zm15.371-9.123c-.649,0-.959-.216-1.577-1.052-.371-.463-.65-.649-1.052-.649-.588,0-1.113.4-1.577,1.176a6.585,6.585,0,0,0-.773,3.835v1.639c.062,2.072.433,2.536,1.948,2.568h.34v1.3h-8.35v-1.3h.185c1.516-.031,1.825-.464,1.887-2.568v-4.051c-.062-2.072-.4-2.536-1.917-2.567h-.186v-1.3c.99-.155,2.814-.557,5.443-1.176a10.793,10.793,0,0,1,.464,3.155,5.147,5.147,0,0,1,4.33-3.155,2.361,2.361,0,0,1,2.474,2.351A1.689,1.689,0,0,1,1126.21,423.381Zm12.248,9.216a6,6,0,0,1-4.824-2.257c-.8.711-2.042,1.886-2.32,2.226h-1.052V415.927c0-1.856-.432-2.474-1.917-2.474h-.124v-1.33a32.064,32.064,0,0,0,5.814-.9h.217v9.68a6.435,6.435,0,0,1,4.329-1.67c3.65,0,6.278,2.784,6.278,6.619C1144.859,429.783,1142.2,432.6,1138.458,432.6Zm16.113.093c-4.361,0-7.423-2.753-7.423-6.68,0-3.959,3.031-6.774,7.3-6.774,4.237,0,7.268,2.815,7.268,6.742C1161.716,429.813,1158.654,432.69,1154.571,432.69Zm25.453-.495a27.608,27.608,0,0,0-5.66.495h-.155a13.362,13.362,0,0,1-.185-2.134v-.309a5.756,5.756,0,0,1-4.64,2.443,4.168,4.168,0,0,1-3.649-1.856,4.7,4.7,0,0,1-.526-2.66v-4.608c-.061-2.072-.4-2.506-1.825-2.536h-.123v-1.3h5.938v8.32c0,1.175.155,1.793.587,2.134a1.742,1.742,0,0,0,1.113.432,3.263,3.263,0,0,0,2.753-1.855,4.842,4.842,0,0,0,.372-1.052v-4.144c-.062-2.072-.372-2.506-1.856-2.536h-.185v-1.3h6.03v8.6c.062,2.041.433,2.536,1.918,2.568h.093Zm12.247-8.814c-.649,0-.958-.216-1.577-1.052-.371-.463-.649-.649-1.051-.649-.588,0-1.113.4-1.577,1.176a6.585,6.585,0,0,0-.774,3.835v1.639c.062,2.072.433,2.536,1.949,2.568h.34v1.3h-8.35v-1.3h.186c1.516-.031,1.825-.464,1.887-2.568v-4.051c-.062-2.072-.4-2.536-1.917-2.567h-.186v-1.3c.99-.155,2.815-.557,5.443-1.176a10.814,10.814,0,0,1,.464,3.155,5.146,5.146,0,0,1,4.33-3.155,2.361,2.361,0,0,1,2.474,2.351A1.689,1.689,0,0,1,1192.271,423.381Z" transform="translate(-861.305 -400.534)" fill="#fff"/>
    <path id="Path_16" data-name="Path 16" d="M888.583,450.562a1.7,1.7,0,0,0,1.67,1.763A4.306,4.306,0,0,0,892.944,451v-4.021l-.186.062C889.7,448.273,888.583,449.2,888.583,450.562Z" transform="translate(-874.037 -422.211)" fill="#fff"/>
  </g>
</svg>
