<svg id="Group_10" data-name="Group 10" xmlns="http://www.w3.org/2000/svg" width="56.347" height="56.348" viewBox="0 0 56.347 56.348">
  <g id="Group_3" data-name="Group 3" transform="translate(0)">
    <path id="Path_17" data-name="Path 17" d="M1485.8,1652.933a28.174,28.174,0,1,1,28.173-28.174A28.205,28.205,0,0,1,1485.8,1652.933Zm0-54.8a26.627,26.627,0,1,0,26.627,26.627A26.657,26.657,0,0,0,1485.8,1598.132Z" transform="translate(-1457.631 -1596.585)" fill="#fff"/>
  </g>
  <g id="Group_9" data-name="Group 9" transform="translate(7.455 14.706)">
    <g id="Group_4" data-name="Group 4">
      <path id="Path_18" data-name="Path 18" d="M1514.283,1640.342c2.764-.689,2.765-2.764,2.765-2.764h-6.906c-4.142-4.144-8.288-5.527-13.812-5.527s-9.672,1.383-13.816,5.527h-6.9s0,2.075,2.764,2.764a17.724,17.724,0,0,0-1.551,2.607,10.512,10.512,0,0,0-1.213,4.3,9.244,9.244,0,0,0,9.669,9.666,11.163,11.163,0,0,0,8.285-4.144l2.766,4.144,2.762-4.144a11.168,11.168,0,0,0,8.286,4.144,9.246,9.246,0,0,0,9.67-9.666,10.258,10.258,0,0,0-1.117-4.1A17.667,17.667,0,0,0,1514.283,1640.342Zm-29,13.81a6.9,6.9,0,1,1,6.905-6.9A6.9,6.9,0,0,1,1485.279,1654.151Zm11.051-2.76a15.668,15.668,0,0,0-4.44-10.606,9.578,9.578,0,0,0-6.61-3.208,16.8,16.8,0,0,1,22.1,0,9.6,9.6,0,0,0-6.639,3.238A15.676,15.676,0,0,0,1496.33,1651.391Zm11.048,2.76a6.9,6.9,0,1,1,6.9-6.9A6.9,6.9,0,0,1,1507.378,1654.151Z" transform="translate(-1475.61 -1632.051)" fill="#fff"/>
    </g>
    <g id="Group_5" data-name="Group 5" transform="translate(30.388 13.812)">
      <path id="Path_19" data-name="Path 19" d="M1550.276,1665.362a1.382,1.382,0,1,0,1.382,1.382A1.382,1.382,0,0,0,1550.276,1665.362Z" transform="translate(-1548.896 -1665.362)" fill="#fff"/>
    </g>
    <g id="Group_6" data-name="Group 6" transform="translate(27.623 11.05)">
      <path id="Path_20" data-name="Path 20" d="M1546.374,1658.7a4.145,4.145,0,1,0,4.145,4.147A4.148,4.148,0,0,0,1546.374,1658.7Zm0,6.909a2.764,2.764,0,1,1,2.764-2.762A2.765,2.765,0,0,1,1546.374,1665.609Z" transform="translate(-1542.229 -1658.7)" fill="#fff"/>
    </g>
    <g id="Group_7" data-name="Group 7" transform="translate(8.288 13.812)">
      <path id="Path_21" data-name="Path 21" d="M1496.979,1665.362a1.382,1.382,0,1,0,1.381,1.382A1.383,1.383,0,0,0,1496.979,1665.362Z" transform="translate(-1495.597 -1665.362)" fill="#fff"/>
    </g>
    <g id="Group_8" data-name="Group 8" transform="translate(5.524 11.05)">
      <path id="Path_22" data-name="Path 22" d="M1493.077,1658.7a4.145,4.145,0,1,0,4.144,4.147A4.147,4.147,0,0,0,1493.077,1658.7Zm0,6.909a2.764,2.764,0,1,1,2.764-2.762A2.765,2.765,0,0,1,1493.077,1665.609Z" transform="translate(-1488.932 -1658.7)" fill="#fff"/>
    </g>
  </g>
</svg>
